# AST/ASF file generated using VICON BodyLanguage
# -----------------------------------------------
:version 1.10
:name VICON
:units
  mass 1.0
  length 0.45
  angle deg
:documentation
   .ast/.asf automatically generated from VICON data using
   VICON BodyBuilder and BodyLanguage model FoxedUp or BRILLIANT.MOD
:root
   order TX TY TZ RX RY RZ
   axis XYZ
   position 0 0 0  
   orientation 0 0 0 
:bonedata
  begin
     id 1 
     name lhipjoint
     direction 0.584852 -0.759097 0.285867 
     length 2.43633 
     axis 0 0 0  XYZ
  end
  begin
     id 2 
     name lfemur
     direction 0.34202 -0.939693 0  
     length 7.14704  
     axis 0 0 20  XYZ
    dof rx ry rz
    limits (-160.0 20.0)
           (-70.0 70.0)
           (-60.0 70.0)
  end
  begin
     id 3 
     name ltibia
     direction 0.342022 -0.939692 0   
     length 7.68483   
     axis 0 0 20   XYZ
    dof rx
    limits (-10.0 170.0)
  end
  begin
     id 4 
     name lfoot
     direction 0.0999605 -0.274639 0.956337   
     length 2.40452   
     axis -90 7.62852e-016 20   XYZ
    dof rx rz
    limits (-45.0 90.0)
           (-70.0 20.0)
  end
  begin
     id 5 
     name ltoes
     direction 1.53468e-011 -4.21881e-011 1   
     length 1.19837   
     axis -90 7.62852e-016 20   XYZ
    dof rx
    limits (-90.0 20.0)
  end
  begin
     id 6 
     name rhipjoint
     direction -0.569886 -0.769002 0.289597   
     length 2.40495  
     axis 0 0 0  XYZ 
  end
  begin
     id 7 
     name rfemur
     direction -0.34202 -0.939693 0   
     length 7.45086   
     axis 0 0 -20   XYZ
    dof rx ry rz
    limits (-160.0 20.0)
           (-70.0 70.0)
           (-70.0 60.0)
  end
  begin
     id 8 
     name rtibia
     direction -0.34202 -0.939693 0   
     length 7.76831   
     axis 0 0 -20   XYZ
    dof rx
    limits (-10.0 170.0)
 end
 begin
     id 9 
     name rfoot
     direction -0.0798572 -0.219406 0.97236   
     length 2.35911  
     axis -90 -7.62852e-016 -20   XYZ
    dof rx rz
    limits (-45.0 90.0)
           (-20.0 70.0)
  end
  begin
     id 10 
     name rtoes
     direction -1.53469e-011 -4.21728e-011 1   
     length 1.18261   
     axis -90 -7.62852e-016 -20   XYZ
    dof rx
    limits (-90.0 20.0)
  end
  begin
     id 11 
     name lowerback
     direction 0.0242088 0.999437 0.0232389   
     length 2.1561   
     axis 0 0 0   XYZ
    dof rx ry rz
    limits (-20.0 45.0)
           (-30.0 30.0)
           (-30.0 30.0)
  end
  begin
     id 12 
     name upperback
     direction -0.0356893 0.999013 -0.0264323   
     length 2.14431   
     axis 0 0 0   XYZ
    dof rx ry rz
    limits (-20.0 45.0)
           (-30.0 30.0)
           (-30.0 30.0)
  end
  begin
     id 13 
     name thorax
     direction -0.0472163 0.998194 -0.0371284   
     length 2.16169   
     axis 0 0 0   XYZ
    dof rx ry rz
    limits (-20.0 45.0)
           (-30.0 30.0)
           (-30.0 30.0)
  end
  begin
     id 14 
     name lowerneck
     direction 0.00863244 0.999921 0.00911972   
     length 1.58651   
     axis 0 0 0   XYZ
    dof rx ry rz
    limits (-20.0 45.0)
           (-30.0 30.0)
           (-30.0 30.0)
  end
  begin
     id 15 
     name upperneck
     direction 0.149523 0.979068 -0.138086   
     length 1.57486   
     axis 0 0 0   XYZ
    dof rx ry rz
    limits (-20.0 45.0)
           (-30.0 30.0)
           (-30.0 30.0)
  end
  begin
     id 16
     name head
     direction 0.0445219 0.997708 -0.0509576  
     length 1.6019  
     axis 0 0 0   XYZ
    dof rx ry rz
    limits (-20.0 45.0)
           (-30.0 30.0)
           (-30.0 30.0)
  end
  begin
     id 17 
     name lclavicle
     direction 0.911271 0.381667 -0.154644  
     length 3.80848  
     axis 0 0 0   XYZ
    dof ry rz
    limits (-20.0 10.0)
           (0.0 20.0)
  end
  begin
     id 18 
     name lhumerus
     direction 1 -4.49003e-011 2.1308e-027   
     length 5.19069   
     axis 180 -30 -90   XYZ
    dof rx ry rz
    limits (-60.0 90.0)
           (-90.0 90.0)
           (-90.0 90.0)
  end
  begin
     id 19
     name lradius
     direction 1 -4.48914e-011 4.01554e-027   
     length 3.30016   
     axis 180 -30 -90   XYZ
    dof rx
    limits (-10.0 170.0)
  end
  begin
     id 20
     name lwrist
     direction 1 -4.49003e-011 1.1934e-026   
     length 1.65008   
     axis -8.46377e-015 90 90   XYZ
    dof ry
    limits (-180.0 0.0)
 end
  begin
     id 21 
     name lhand
     direction 1 -4.49034e-011 2.38659e-026   
     length 0.707698   
     axis -1.52313e-014 90 90   XYZ
    dof rx rz
    limits (-90.0 90.0)
           (-45.0 45.0)
  end
  begin
     id 22 
     name lfingers
     direction 1 -4.48691e-011 4.77775e-026   
     length 0.570564   
     axis -3.04623e-014 90 90   XYZ
    dof rx
    limits (0.0 90.0)
  end
  begin
     id 23
     name lthumb
     direction 0.707107 -6.34832e-011 0.707107   
     length 0.819219   
     axis -90 45 -1.62303e-014   XYZ
    dof rx rz
    limits (-45.0 45.0)
           (-45.0 45.0)
  end
  begin
     id 24 
     name rclavicle
     direction -0.815579 0.573708 -0.0754329   
     length 3.54371  
     axis 0 0 0   XYZ 
    dof ry rz
    limits (-10.0 20.0)
           (-20.0 0.0)
  end
  begin
     id 25 
     name rhumerus
     direction -1 -4.48956e-011 3.05351e-028  
     length 5.23924   
     axis 180 30 90   XYZ
    dof rx ry rz
    limits (-90.0 60.0)
           (-90.0 90.0)
           (-90.0 90.0)
  end
  begin
     id 26 
     name rradius
     direction -1 -4.49013e-011 3.53849e-027   
     length 3.32953   
     axis 180 30 90   XYZ
    dof rx
    limits (-10.0 170.0)
  end
  begin
     id 27 
     name rwrist
     direction -1 -4.48901e-011 1.19374e-026   
     length 1.66477   
     axis -8.46377e-015 -90 -90   XYZ
    dof ry
    limits (-180.0 0.0)
  end
  begin
     id 28
     name rhand
     direction -1 -4.48877e-011 2.38764e-026   
     length 0.607414   
     axis -1.52313e-014 -90 -90   XYZ
    dof rx rz
    limits (-90.0 90.0)
           (-45.0 45.0)
  end
  begin
     id 29
     name rfingers
     direction -1 -4.48882e-011 4.77521e-026   
     length 0.489712   
     axis -3.04623e-014 -90 -90   XYZ
    dof rx
    limits (0.0 90.0)
  end
  begin
     id 30
     name rthumb
     direction -0.707107 -6.34974e-011 0.707107   
     length 0.703132   
     axis -90 -45 1.62303e-014   XYZ
    dof rx rz
    limits (-45.0 45.0)
           (-45.0 45.0)
  end
:hierarchy
  begin
    root lhipjoint rhipjoint lowerback
    lhipjoint lfemur
    lfemur ltibia
    ltibia lfoot
    lfoot ltoes
    rhipjoint rfemur
    rfemur rtibia
    rtibia rfoot
    rfoot rtoes
    lowerback upperback
    upperback thorax
    thorax lowerneck lclavicle rclavicle
    lowerneck upperneck
    upperneck head
    lclavicle lhumerus
    lhumerus lradius
    lradius lwrist
    lwrist lhand lthumb
    lhand lfingers
    rclavicle rhumerus
    rhumerus rradius
    rradius rwrist
    rwrist rhand rthumb
    rhand rfingers
  end

#!OML:ASF E:\VariousWalksJay\Project 1\Capture day 1\Session 1\Actor2.ASF
:FULLY-SPECIFIED
:DEGREES
95
root 3.9779 17.184 1.97646 3.80739 0.982447 -10.2265
lowerback -0.725027 -2.81689 11.9789
upperback 3.93652 -4.17912 1.51897
thorax 3.83592 -1.70524 -5.23328
lowerneck -1.39466 -13.3702 -13.1762
upperneck 2.67937 -19.0476 22.5605
head 4.58495 -9.2548 7.79223
rclavicle 5.14852e-014 1.31198e-014
rhumerus -24.9695 0.971068 -87.3026
rradius 26.7459
rwrist 2.2388
rhand -13.053 -6.96107
rfingers 7.12502
rthumb 13.0421 -36.5333
lclavicle 5.14852e-014 1.31198e-014
lhumerus -22.0744 3.83525 81.7711
lradius 21.7686
lwrist 2.75271
lhand -9.60843 -4.89964
lfingers 7.12502
lthumb 16.3607 24.4303
rfemur -22.3641 3.32408 30.0531
rtibia 37.9699
rfoot -18.0993 -5.5042
rtoes 0.855593
lfemur -8.74326 6.3082 -8.64354
ltibia 36.1966
lfoot -30.9123 16.9824
ltoes -7.00379
96
root 4.00194 17.1883 1.95476 3.85326 0.952224 -10.2997
lowerback -0.655236 -2.8117 12.0166
upperback 3.94941 -4.16389 1.51848
thorax 3.81067 -1.69745 -5.25051
lowerneck -1.39527 -13.3728 -13.1825
upperneck 2.68328 -19.0547 22.5863
head 4.59114 -9.25802 7.80018
rclavicle 3.55825e-014 -4.25399e-014
rhumerus -24.9884 0.987798 -87.2927
rradius 26.7851
rwrist 2.20254
rhand -13.0179 -6.96028
rfingers 7.12502
rthumb 13.076 -36.5304
lclavicle 3.55825e-014 -4.25399e-014
lhumerus -22.0394 3.66762 81.8454
lradius 21.889
lwrist 2.87242
lhand -9.61784 -4.87587
lfingers 7.12502
lthumb 16.3516 24.4548
rfemur -22.4358 3.2964 30.0289
rtibia 37.843
rfoot -17.9177 -5.39646
rtoes 0.834046
lfemur -8.89798 6.36579 -8.65847
ltibia 36.2415
lfoot -30.8623 16.9382
ltoes -6.93378
97
root 4.02694 17.1924 1.93242 3.89883 0.902919 -10.3758
lowerback -0.580301 -2.80365 12.0548
upperback 3.96491 -4.14431 1.51871
thorax 3.78614 -1.68736 -5.26706
lowerneck -1.39851 -13.3722 -13.1834
upperneck 2.68244 -19.0561 22.6105
head 4.59463 -9.25844 7.80756
rclavicle 4.17448e-015 -4.01545e-014
rhumerus -25 1.02005 -87.2819
rradius 26.8364
rwrist 2.15638
rhand -12.9858 -6.9605
rfingers 7.12502
rthumb 13.1068 -36.5286
lclavicle 4.17448e-015 -4.01545e-014
lhumerus -22.0116 3.49368 81.922
lradius 22.0249
lwrist 3.00021
lhand -9.63236 -4.85299
lfingers 7.12502
lthumb 16.3377 24.4788
rfemur -22.508 3.27205 30.0048
rtibia 37.7151
rfoot -17.7304 -5.27744
rtoes 0.807542
lfemur -9.04943 6.42569 -8.67895
ltibia 36.2874
lfoot -30.8209 16.9247
ltoes -6.85968
98
root 4.05283 17.1964 1.90951 3.94435 0.832598 -10.4522
lowerback -0.501267 -2.79241 12.0896
upperback 3.98342 -4.12002 1.51905
thorax 3.76355 -1.67483 -5.28146
lowerneck -1.40556 -13.3674 -13.1782
upperneck 2.67843 -19.0506 22.6323
head 4.5957 -9.25542 7.81403
rclavicle -2.98177e-016 -2.0276e-014
rhumerus -25.0023 1.06575 -87.27
rradius 26.8978
rwrist 2.10359
rhand -12.9586 -6.96125
rfingers 7.12502
rthumb 13.1331 -36.5277
lclavicle -2.98177e-016 -2.0276e-014
lhumerus -21.9901 3.31507 81.9999
lradius 22.1734
lwrist 3.13275
lhand -9.65202 -4.83177
lfingers 7.12502
lthumb 16.3187 24.5016
rfemur -22.5813 3.25279 29.9784
rtibia 37.5877
rfoot -17.5378 -5.14789
rtoes 0.774265
lfemur -9.19604 6.48856 -8.70787
ltibia 36.3325
lfoot -30.7886 16.9444
ltoes -6.77949
99
root 4.07949 17.2003 1.88604 3.99055 0.739902 -10.5262
lowerback -0.419177 -2.77776 12.1167
upperback 4.00507 -4.09075 1.51889
thorax 3.74385 -1.6598 -5.29208
lowerneck -1.41823 -13.3575 -13.1662
upperneck 2.67385 -19.0373 22.6509
head 4.59508 -9.24827 7.8192
rclavicle -3.13086e-014 -1.47101e-014
rhumerus -24.9934 1.12192 -87.2567
rradius 26.9671
rwrist 2.04807
rhand -12.9371 -6.96226
rfingers 7.12502
rthumb 13.1538 -36.5274
lclavicle -3.13086e-014 -1.47101e-014
lhumerus -21.9733 3.13262 82.0783
lradius 22.3308
lwrist 3.26826
lhand -9.6757 -4.81264
lfingers 7.12502
lthumb 16.2959 24.5226
rfemur -22.6573 3.24091 29.9473
rtibia 37.4625
rfoot -17.3404 -5.00938
rtoes 0.732713
lfemur -9.33719 6.5557 -8.74777
ltibia 36.3751
lfoot -30.7651 16.997
ltoes -6.69269
100
root 4.1068 17.2042 1.86202 4.0385 0.623859 -10.5955
lowerback -0.335249 -2.75945 12.132
upperback 4.02974 -4.05626 1.51763
thorax 3.72782 -1.64224 -5.29737
lowerneck -1.43849 -13.3419 -13.1466
upperneck 2.67156 -19.0155 22.6651
head 4.59363 -9.23638 7.82253
rclavicle -1.2921e-014 5.08889e-014
rhumerus -24.972 1.18458 -87.2419
rradius 27.0422
rwrist 1.99386
rhand -12.9219 -6.96263
rfingers 7.12502
rthumb 13.1685 -36.5268
lclavicle -1.2921e-014 5.08889e-014
lhumerus -21.9594 2.94908 82.1557
lradius 22.4929
lwrist 3.40305
lhand -9.70169 -4.79557
lfingers 7.12502
lthumb 16.2709 24.5417
rfemur -22.7382 3.23922 29.9092
rtibia 37.3415
rfoot -17.1388 -4.8641
rtoes 0.682574
lfemur -9.47302 6.62898 -8.8006
ltibia 36.4139
lfoot -30.7501 17.0794
ltoes -6.59925
101
root 4.13462 17.2079 1.83744 4.08942 0.484174 -10.6579
lowerback -0.250697 -2.7375 12.1317
upperback 4.05702 -4.01663 1.51465
thorax 3.71581 -1.62228 -5.29601
lowerneck -1.46863 -13.3198 -13.1192
upperneck 2.67554 -18.9844 22.6739
head 4.59259 -9.21906 7.82351
rclavicle -7.85199e-015 -3.18055e-014
rhumerus -24.9371 1.24956 -87.2256
rradius 27.1211
rwrist 1.94467
rhand -12.9121 -6.96161
rfingers 7.12502
rthumb 13.1779 -36.5251
lclavicle -7.85199e-015 -3.18055e-014
lhumerus -21.9472 2.76538 82.231
lradius 22.6554
lwrist 3.53593
lhand -9.72765 -4.7799
lfingers 7.12502
lthumb 16.2459 24.5594
rfemur -22.8266 3.25016 29.8623
rtibia 37.2268
rfoot -16.9336 -4.71434
rtoes 0.623711
lfemur -9.60419 6.71082 -8.8677
ltibia 36.4477
lfoot -30.7422 17.1867
ltoes -6.5025
102
root 4.16278 17.2116 1.81226 4.14477 0.321239 -10.7119
lowerback -0.166486 -2.712 12.1133
upperback 4.08612 -3.97203 1.50944
thorax 3.70756 -1.60015 -5.28715
lowerneck -1.51131 -13.2904 -13.0834
upperneck 2.6903 -18.9435 22.6756
head 4.59346 -9.1958 7.82135
rclavicle 1.99779e-014 7.55382e-015
rhumerus -24.8889 1.31277 -87.208
rradius 27.2029
rwrist 1.90272
rhand -12.9066 -6.95861
rfingers 7.12502
rthumb 13.1832 -36.5218
lclavicle 1.99779e-014 7.55382e-015
lhumerus -21.9356 2.5827 82.3025
lradius 22.8143
lwrist 3.66565
lhand -9.75125 -4.76456
lfingers 7.12502
lthumb 16.2232 24.5766
rfemur -22.9254 3.27605 29.8053
rtibia 37.1205
rfoot -16.725 -4.56281
rtoes 0.557188
lfemur -9.73205 6.80366 -8.94926
ltibia 36.4755
lfoot -30.7403 17.3112
ltoes -6.40336
103
root 4.19117 17.2151 1.78645 4.20582 0.135767 -10.7567
lowerback -0.0836416 -2.68326 12.0752
upperback 4.11641 -3.92296 1.50166
thorax 3.70287 -1.57618 -5.27028
lowerneck -1.56939 -13.2531 -13.0388
upperneck 2.72029 -18.8924 22.6688
head 4.59777 -9.16597 7.81538
rclavicle 1.98785e-014 3.61788e-014
rhumerus -24.8275 1.37129 -87.1895
rradius 27.2871
rwrist 1.86898
rhand -12.9036 -6.95351
rfingers 7.12502
rthumb 13.1861 -36.5165
lclavicle 1.98785e-014 3.61788e-014
lhumerus -21.9232 2.4022 82.3691
lradius 22.9652
lwrist 3.79104
lhand -9.77055 -4.74926
lfingers 7.12502
lthumb 16.2046 24.5935
rfemur -23.0374 3.31856 29.7377
rtibia 37.0243
rfoot -16.5136 -4.41182
rtoes 0.484164
lfemur -9.85814 6.91059 -9.04451
ltibia 36.4967
lfoot -30.7417 17.4456
ltoes -6.30668
104
root 4.21965 17.2185 1.75996 4.27342 -0.0712397 -10.7925
lowerback -0.00265252 -2.65163 12.0169
upperback 4.14706 -3.86993 1.49113
thorax 3.70103 -1.55071 -5.24541
lowerneck -1.64527 -13.2074 -12.985
upperneck 2.76971 -18.8307 22.6516
head 4.60686 -9.12908 7.80478
rclavicle 8.94531e-016 1.19271e-015
rhumerus -24.754 1.42265 -87.171
rradius 27.3737
rwrist 1.8429
rhand -12.9012 -6.94569
rfingers 7.12502
rthumb 13.1884 -36.5085
lclavicle 8.94531e-016 1.19271e-015
lhumerus -21.9093 2.22442 82.4295
lradius 23.104
lwrist 3.91071
lhand -9.78453 -4.73407
lfingers 7.12502
lthumb 16.1911 24.6097
rfemur -23.1648 3.37833 29.6599
rtibia 36.9399
rfoot -16.2994 -4.263
rtoes 0.40564
lfemur -9.98359 7.03427 -9.15188
ltibia 36.5105
lfoot -30.7442 17.5821
ltoes -6.21474
